<svg width="29" height="29" viewBox="0 0 29 29" fill="none" xmlns="http://www.w3.org/2000/svg">
<path d="M18.7363 16.9707C18.7363 17.1171 18.7037 17.2677 18.6346 17.4141C18.5654 17.5606 18.4759 17.6989 18.3579 17.8291C18.1586 18.0487 17.9389 18.2074 17.6908 18.3091C17.4467 18.4108 17.1822 18.4637 16.8975 18.4637C16.4825 18.4637 16.0391 18.3661 15.5713 18.1667C15.1034 17.9674 14.6356 17.6989 14.1718 17.3612C13.704 17.0195 13.2605 16.6412 12.8375 16.2221C12.4184 15.7991 12.0401 15.3556 11.7024 14.8919C11.3689 14.4281 11.1004 13.9643 10.9051 13.5046C10.7098 13.0409 10.6122 12.5974 10.6122 12.1743C10.6122 11.8977 10.661 11.6333 10.7586 11.3892C10.8563 11.141 11.0109 10.9132 11.2265 10.7098C11.4868 10.4535 11.7716 10.3274 12.0726 10.3274C12.1866 10.3274 12.3005 10.3518 12.4022 10.4006C12.5079 10.4494 12.6015 10.5227 12.6747 10.6284L13.6185 11.9587C13.6918 12.0604 13.7447 12.154 13.7813 12.2435C13.8179 12.3289 13.8382 12.4144 13.8382 12.4916C13.8382 12.5893 13.8098 12.6869 13.7528 12.7805C13.6999 12.8741 13.6226 12.9717 13.525 13.0693L13.2158 13.3907C13.1711 13.4355 13.1507 13.4883 13.1507 13.5534C13.1507 13.586 13.1548 13.6145 13.1629 13.647C13.1751 13.6796 13.1873 13.704 13.1955 13.7284C13.2687 13.8626 13.3948 14.0375 13.5738 14.2491C13.7569 14.4606 13.9521 14.6762 14.1637 14.8919C14.3834 15.1075 14.5949 15.3068 14.8105 15.4899C15.0221 15.6689 15.197 15.7909 15.3353 15.8641C15.3556 15.8723 15.3801 15.8845 15.4085 15.8967C15.4411 15.9089 15.4736 15.913 15.5102 15.913C15.5794 15.913 15.6323 15.8886 15.677 15.8438L15.9862 15.5387C16.0879 15.437 16.1856 15.3597 16.2791 15.3109C16.3727 15.2539 16.4663 15.2254 16.568 15.2254C16.6453 15.2254 16.7266 15.2417 16.8161 15.2783C16.9056 15.3149 16.9992 15.3678 17.1009 15.437L18.4474 16.393C18.5532 16.4662 18.6264 16.5517 18.6712 16.6534C18.7119 16.7551 18.7363 16.8568 18.7363 16.9707Z" stroke="#292D32" stroke-width="0.915334" stroke-miterlimit="10"/>
<rect x="0.950375" y="0.665585" width="27.46" height="27.46" rx="13.73" stroke="#F3F3F3" stroke-width="0.610223"/>
</svg>
